<svg xmlns="http://www.w3.org/2000/svg" viewBox="0 0 100 100">
  <defs>
    <linearGradient id="grad1" x1="0%" y1="0%" x2="100%" y2="100%">
      <stop offset="0%" style="stop-color:#00A8FF;stop-opacity:1" />
      <stop offset="100%" style="stop-color:#6366f1;stop-opacity:1" />
    </linearGradient>
  </defs>

  <!-- Background circle -->
  <circle cx="50" cy="50" r="48" fill="url(#grad1)"/>

  <!-- Letter E -->
  <path d="M 28 30 L 52 30 L 52 38 L 38 38 L 38 46 L 50 46 L 50 54 L 38 54 L 38 62 L 52 62 L 52 70 L 28 70 Z" fill="white"/>

  <!-- Letter G -->
  <path d="M 58 30 L 72 30 L 72 38 L 66 38 L 66 54 L 70 54 L 70 48 L 76 48 L 76 62 L 58 62 L 58 30 Z" fill="white"/>

  <!-- AI circuit dots -->
  <circle cx="72" cy="25" r="2" fill="white" opacity="0.8"/>
  <circle cx="78" cy="28" r="1.5" fill="white" opacity="0.6"/>
  <circle cx="75" cy="32" r="1.5" fill="white" opacity="0.6"/>
</svg>